<svg id="Capa_1" data-name="Capa 1" xmlns="http://www.w3.org/2000/svg" xmlns:xlink="http://www.w3.org/1999/xlink" viewBox="0 0 544 531.78"><defs><style>.cls-1,.cls-2{fill:none;stroke:#fdfa77;stroke-miterlimit:10;}.cls-1{stroke-width:25px;}.cls-2{stroke-width:8px;}.cls-3{fill:#fdfa77;}</style></defs><title>tier</title><image width="512" height="585" transform="translate(0 221) scale(0.53)" xlink:href="Emblem_Platinum.png"/><image width="512" height="585" transform="translate(272) scale(0.53 0.53)" xlink:href="Diamond.png"/><path class="cls-1" d="M825.5,348.5" transform="translate(-96 -62)"/><path class="cls-1" d="M748.5,551.5" transform="translate(-96 -62)"/><path class="cls-1" d="M1051.23,325.47" transform="translate(-96 -62)"/><path class="cls-1" d="M815.23,357.47" transform="translate(-96 -62)"/><path class="cls-2" d="M192.5,271.5c24.86-60,82.93-87.74,130.26-81.57" transform="translate(-96 -62)"/><path class="cls-3" d="M325.14,152.26c5.73,18.76,17.71,35.32,31.36,49.24-18.63,5.93-36.36,15.78-50.45,29.38l-9.7-2.35c14-13.12,29.5-23.68,47.1-30.2a142.58,142.58,0,0,1-28.18-48.46Z" transform="translate(-96 -62)"/><path class="cls-3" d="M301.74,146.58c5.73,18.76,17.72,35.32,31.36,49.24-18.63,5.93-36.35,15.78-50.44,29.38l-9.7-2.35c14-13.12,29.5-23.68,47.09-30.2a142.62,142.62,0,0,1-28.17-48.46Z" transform="translate(-96 -62)"/></svg>