<svg id="Capa_1" data-name="Capa 1" xmlns="http://www.w3.org/2000/svg" viewBox="0 0 256.08 61.14"><defs><style>.cls-1,.cls-3{fill:#44465b;}.cls-2{fill:#c37e09;}.cls-3{fill-rule:evenodd;}</style></defs><title>isologotipo</title><path class="cls-1" d="M463.75,504.35a2,2,0,0,0,1.88-1.14,10.39,10.39,0,0,0,.57-4.16q0-4.38-2.36-4.38-2.54,0-2.54,5,0,4.69,2.45,4.69m0,3.79A7.62,7.62,0,0,1,458,505.8a8.73,8.73,0,0,1-2.23-6.27,9.11,9.11,0,0,1,2.13-6.21,7.45,7.45,0,0,1,5.92-2.45,7.55,7.55,0,0,1,5.71,2.31,8.54,8.54,0,0,1,2.2,6.16,9.08,9.08,0,0,1-2.22,6.4A7.49,7.49,0,0,1,463.77,508.14Zm-8.8-4.37v4.12H443.21V491.12h5.15v12.65Zm-13.79.13v4H428.56V491.12h12.62V495h-7.56v2.43h6.11v3.73h-6.11v2.74Z" transform="translate(-372.31 -469.25)"/><path class="cls-1" d="M593,491.12l-5.23,9.68v7.09h-5V500.8l-5.64-9.68h5.63l3,5.52,2.81-5.52Zm-16.82,0v16.77h-4.78v-12l-3.12,12H565l-3.22-12v12H558V491.12h6.71L567.1,500l2.32-8.91ZM555.94,503.9v4H543.32V491.12h12.62V495h-7.57v2.43h6.11v3.73h-6.11v2.74Zm-24.54.15h1.34a2.57,2.57,0,0,0,2.15-1.25,5.72,5.72,0,0,0,.88-3.38,6.25,6.25,0,0,0-.77-3.17,2.48,2.48,0,0,0-2.26-1.33H531.4Zm-5.15,3.84V491.12h6.48q4.23,0,6.32,2.51a8.75,8.75,0,0,1,2.1,5.8,8.49,8.49,0,0,1-2.25,6.11,7.72,7.72,0,0,1-5.85,2.35Zm-11.33-7h2.69l-1.35-4.86Zm4.56,7-.93-3.29H514l-1,3.29h-4.17L514,491.12h5.43l5.28,16.77Zm-15.58-6.38,4.7.28a6.81,6.81,0,0,1-2.28,4.71,7.09,7.09,0,0,1-4.77,1.64,7.18,7.18,0,0,1-5.51-2.25,8.82,8.82,0,0,1-2.1-6.24,9.66,9.66,0,0,1,2-6.36,7.76,7.76,0,0,1,10.65-.58,7.59,7.59,0,0,1,2,4.87l-4.8.26a3.76,3.76,0,0,0-.64-2.43,2,2,0,0,0-1.52-.74q-2.42,0-2.42,4.89a7.6,7.6,0,0,0,.63,3.73,2,2,0,0,0,1.77,1C503,504.27,503.73,503.35,503.9,501.51Zm-20-.58h2.68l-1.35-4.86Zm4.55,7-.92-3.29h-4.57l-1,3.29h-4.17L483,491.12h5.44l5.27,16.77Z" transform="translate(-372.31 -469.25)"/><path class="cls-2" d="M596.71,477.1H402.63a24.7,24.7,0,0,1-.77,45.4H596.71l17.43-22.7ZM595,524.67H393.52v4.59h198ZM393.52,474.92H595l-3.53-4.59h-198Zm204.55,2.18,17.43,22.7q-8.7,11.35-17.42,22.7h10.15l17.43-22.7-17.43-22.7ZM393,469.25H592l4.36,5.67h12.9l19.1,24.88-19.1,24.87H596.41L592,530.35c-66.53.08-133.62,0-200.15,0v-8.16l1.06,0a22.54,22.54,0,0,0,0-45.07l-1.06,0v-7.83Z" transform="translate(-372.31 -469.25)"/><path class="cls-2" d="M405.54,514.63A19.44,19.44,0,0,1,373.77,503l0-.13,3-3-3-3,0-.14a19.44,19.44,0,0,1,38.38,0l0,.13-3,3,3,3,0,.14a19.4,19.4,0,0,1-6.61,11.69M393,518.73A18.94,18.94,0,0,0,411.61,503l-1.38-1.39a17.36,17.36,0,0,1-34.53,0L374.31,503A18.92,18.92,0,0,0,393,518.73ZM375.7,498a17.36,17.36,0,0,1,34.53,0l1.38-1.39a18.92,18.92,0,0,0-37.3,0Zm34.29.26a17.1,17.1,0,0,0-34.05,0l1.58,1.58-1.58,1.58a17.1,17.1,0,0,0,34.05,0l-1.57-1.56Z" transform="translate(-372.31 -469.25)"/><path class="cls-2" d="M374.57,499.79l-1,1-1.23-1.23,1.23-1.22,1.22,1.22Zm-1,.29.48-.48-.48-.48-.48.48Z" transform="translate(-372.31 -469.25)"/><path class="cls-2" d="M413.45,499.79l-1,1-1.22-1.23,1.22-1.22,1.23,1.22Zm-1,.29.48-.48-.48-.48-.48.48Z" transform="translate(-372.31 -469.25)"/><path class="cls-2" d="M394.35,514.92l-.31,0v.16l.31,0Zm1.07-.14-.31.05,0,.15.31,0Zm1.06-.21-.3.07,0,.15.3-.07Zm1-.28-.3.09,0,.14.29-.09Zm1-.36-.28.11.05.14.29-.11Zm1-.44-.28.13.07.15.28-.14Zm1-.5-.27.15.08.14.27-.15Zm.92-.56-.26.16.08.13.26-.17Zm.87-.64L402,512l.09.12.25-.18Zm.83-.69-.23.21.1.11.24-.2Zm.78-.75-.22.22.11.11a2.28,2.28,0,0,0,.22-.22Zm.72-.8-.2.24.12.1.2-.24Zm.67-.85c-.06.08-.12.17-.19.25l.13.09.18-.25Zm.6-.9-.16.26.12.09c.06-.09.12-.17.17-.26Zm.54-.93-.15.27.14.08.15-.28Zm.47-1c0,.09-.09.18-.13.28l.14.06L407,506Zm.4-1c0,.1-.07.2-.11.29l.14.06c0-.1.08-.2.11-.29Zm.32-1c0,.1-.05.2-.08.3l.14,0,.09-.29Zm.25-1.05-.06.31.15,0,.06-.31Zm.18-1.06c0,.1,0,.2,0,.3l.15,0c0-.11,0-.21,0-.31Zm.1-1.08c0,.11,0,.21,0,.31h.15a3,3,0,0,0,0-.31Zm0-1.08v.31h.16v-.31Zm0-1.07c0,.1,0,.2,0,.3h.16l0-.31Zm-.13-1.08c0,.11,0,.21,0,.31l.16,0c0-.1,0-.21-.05-.31Zm-.2-1.06.06.31.15,0-.06-.3Zm-.28-1c0,.1.06.2.08.3l.15-.05-.08-.29Zm-.36-1c0,.1.08.19.11.29l.15-.05c0-.1-.07-.2-.11-.29Zm-.42-1c0,.09.08.19.13.28l.14-.06c0-.1-.09-.19-.13-.29Zm-.5-1,.15.27.14-.07-.15-.28Zm-.56-.92c.06.08.11.17.17.26l.13-.08-.17-.27Zm-.63-.88a2.35,2.35,0,0,1,.19.25l.12-.1-.18-.24Zm-.68-.83.2.23.12-.1-.21-.24Zm-.75-.79.22.22.11-.11-.22-.22Zm-.79-.72.23.2.1-.12-.23-.2Zm-.85-.67.25.18.09-.12-.25-.19Zm-.89-.61.26.17.08-.13-.26-.17Zm-.94-.54.27.14.08-.13-.27-.15Zm-1-.48.28.13.07-.14-.28-.13Zm-1-.4.29.1.06-.14-.29-.11Zm-1-.34.29.09.05-.15-.3-.08Zm-1.05-.25.3.06,0-.15-.3-.07Zm-1.07-.19.31.05,0-.15-.31,0Zm-1.07-.1.31,0v-.15l-.31,0Zm-1.08,0h.31v-.16h-.31Zm-1.08,0,.31,0v-.15l-.31,0Zm-1.07.12.3,0v-.15l-.31,0Zm-1.06.2.3-.07,0-.15-.31.07Zm-1,.27.3-.09,0-.14-.3.08Zm-1,.35.29-.11-.05-.15-.29.11Zm-1,.41.29-.12-.07-.15-.28.13Zm-1,.49.27-.14-.07-.14-.27.15Zm-.92.56.26-.17-.08-.13-.27.17Zm-.89.62.25-.19-.09-.12-.25.18Zm-.84.68.24-.2-.1-.12-.24.2Zm-.78.73.22-.21-.11-.11-.22.22Zm-.74.8.21-.23-.12-.11-.21.24Zm-.67.84.18-.25-.12-.09c-.06.08-.13.16-.19.25Zm-.62.89c.06-.09.11-.18.17-.26l-.13-.09-.17.26Zm-.55.92.15-.26-.13-.08c-.05.09-.11.18-.15.27Zm-.48,1c0-.09.08-.19.13-.28l-.14-.07c-.05.1-.09.19-.13.29Zm-.41,1c0-.1.07-.19.11-.29l-.15-.06c0,.1-.07.2-.11.29Zm-.34,1a1.61,1.61,0,0,1,.09-.29l-.15-.05-.09.3Zm-.27,1.05c0-.1,0-.2.07-.3l-.15,0c0,.1,0,.2-.07.31Zm-.19,1.06c0-.1,0-.2.05-.3l-.16,0c0,.1,0,.21,0,.31Zm-.11,1.08a3,3,0,0,1,0-.31l-.15,0,0,.31Zm0,1.07v-.3h-.15c0,.11,0,.21,0,.31Zm0,1.08,0-.31h-.16c0,.11,0,.21,0,.31Zm.11,1.08c0-.11,0-.21,0-.31l-.16,0c0,.1,0,.2,0,.31Zm.19,1.06-.06-.3-.16,0c0,.1,0,.2.07.3Zm.26,1.05c0-.1-.05-.2-.08-.3l-.15,0c0,.1.06.2.08.3Zm.34,1c0-.1-.07-.19-.1-.29l-.15,0c0,.1.07.2.11.29Zm.41,1-.12-.28-.14.06.12.28Zm.49,1-.15-.27-.14.07.15.28Zm.55.93c-.06-.08-.11-.17-.17-.26l-.13.08c.05.09.11.18.17.27Zm.61.89-.18-.25-.13.09a2.35,2.35,0,0,0,.19.25Zm.68.84a2.2,2.2,0,0,1-.2-.23l-.12.1a2.2,2.2,0,0,0,.2.23Zm.73.8-.22-.23-.11.11.22.22Zm.79.73-.23-.2-.11.11.23.21Zm.83.68-.24-.18-.1.12.25.19Zm.89.63-.26-.18-.09.13.26.17Zm.92.55-.26-.15-.08.13.27.16Zm1,.49-.28-.13-.07.14.28.13Zm1,.42-.29-.11,0,.14.29.11Zm1,.34-.29-.09-.05.15.3.09Zm1.05.28-.3-.07,0,.15.3.07Zm1.06.19-.31,0,0,.15.31.05Zm1.07.12-.3,0,0,.15.31,0Zm1.08.05h-.31v.16h.31Zm.42,0H393v.16h.31Z" transform="translate(-372.31 -469.25)"/><path class="cls-3" d="M397.77,497.13l1.56,4.09-3.14,0Zm-2.39-3.6,3.77.05,4.79,12.49-2.76,0-.92-2.4h-5l-.94,2.4-2.75,0L395.94,495Z" transform="translate(-372.31 -469.25)"/><polygon class="cls-3" points="10.99 24.26 18.41 24.26 18.41 26.6 13.74 26.54 13.74 29.39 17.99 29.39 17.36 31.68 13.74 31.68 13.74 34.44 18.41 34.44 18.41 36.85 10.99 36.85 10.99 24.26"/></svg>