<svg id="Capa_1" data-name="Capa 1" xmlns="http://www.w3.org/2000/svg" viewBox="0 0 72.18 67.99"><defs><style>.cls-1{fill:#c37e09;}.cls-2,.cls-3{fill:#44465b;}.cls-2{fill-rule:evenodd;}</style></defs><title>isotipo</title><path class="cls-1" d="M468.21,499.82l-1.81,1.82-2.14-2.14,2.14-2.14,2.14,2.14Zm-1.81.52.84-.84-.84-.84-.84.84Z" transform="translate(-464.26 -465.85)"/><path class="cls-1" d="M536.12,499.82l-1.81,1.82-2.14-2.14,2.14-2.14,2.14,2.14Zm-1.81.52.84-.84-.84-.84-.84.84Z" transform="translate(-464.26 -465.85)"/><path class="cls-1" d="M522.31,525.75a34,34,0,0,1-55.5-20.4l0-.23,5.28-5.28-5.28-5.28,0-.23a34,34,0,0,1,67,0l0,.23-5.25,5.25,5.25,5.25,0,.23a33.94,33.94,0,0,1-11.54,20.43m-22,7.16a33.06,33.06,0,0,0,32.58-27.5L530.49,503a30.32,30.32,0,0,1-60.31,0l-2.43,2.43a33,33,0,0,0,32.58,27.47Zm-30.15-36.25a30.32,30.32,0,0,1,60.31,0l2.42-2.42a33.05,33.05,0,0,0-65.16,0Zm59.89.45a29.87,29.87,0,0,0-59.48,0l2.76,2.76-2.76,2.76a29.87,29.87,0,0,0,59.48,0l-2.73-2.73Z" transform="translate(-464.26 -465.85)"/><path class="cls-1" d="M502.75,526.25l-.54,0,0,.27.54,0Zm1.87-.24-.53.08,0,.27.53-.08Zm1.85-.37a4.87,4.87,0,0,1-.52.12l.05.27.53-.12Zm1.82-.5-.52.16.08.26.52-.16Zm1.78-.62-.51.19.1.25.51-.19Zm1.73-.76-.49.23.11.25.49-.23Zm1.66-.87-.47.26.13.24.48-.27Zm1.61-1-.45.3.14.23.46-.3Zm1.53-1.1-.43.33.16.22.43-.33Zm1.45-1.21-.41.36.18.2.41-.35Zm1.35-1.31-.37.39.19.19.38-.39Zm1.27-1.4-.35.41.2.18c.12-.13.24-.27.35-.41Zm1.16-1.48-.32.43.21.17.33-.44Zm1-1.57c-.09.16-.19.31-.29.46l.23.15.29-.46Zm.94-1.63c-.08.16-.17.32-.26.47l.24.13c.09-.15.18-.32.26-.48Zm.82-1.7-.22.49.24.12.23-.5Zm.69-1.75-.18.5.25.1c.07-.17.13-.34.19-.51Zm.57-1.8a5.08,5.08,0,0,1-.15.52l.26.08a5.26,5.26,0,0,0,.15-.53Zm.44-1.83c0,.17-.07.35-.11.52l.26.06.12-.53Zm.31-1.87c0,.18,0,.36-.08.54l.27,0c0-.18,0-.36.08-.54Zm.17-1.87,0,.53.27,0,0-.55Zm0-1.89c0,.18,0,.36,0,.54h.28c0-.18,0-.36,0-.54Zm-.09-1.88c0,.18,0,.36,0,.54l.27,0c0-.18,0-.36,0-.54Zm-.22-1.87c0,.17.05.35.08.53l.26,0c0-.18,0-.36-.07-.53Zm-.36-1.86.12.53.26,0c0-.18-.07-.36-.11-.54Zm-.49-1.82c.06.17.11.35.16.52l.26-.07c0-.18-.1-.35-.16-.53Zm-.61-1.78c.06.17.12.34.19.51l.25-.1-.19-.51Zm-.75-1.73c.08.16.15.32.23.49l.25-.11-.23-.5Zm-.86-1.68.26.48.24-.13-.27-.48Zm-1-1.61.29.46.23-.15-.3-.46Zm-1.1-1.53c.11.14.22.28.32.43l.22-.16c-.1-.15-.21-.29-.32-.44Zm-1.2-1.46c.12.14.24.27.35.41l.21-.18-.36-.41Zm-1.3-1.36.38.38.2-.19-.39-.39Zm-1.39-1.27.41.35.18-.2-.42-.36ZM516,478.46l.43.32.16-.22-.43-.32Zm-1.56-1.07.45.3.15-.23-.45-.29Zm-1.63-.94.47.25.14-.23-.48-.26Zm-1.69-.83.49.22.11-.24-.49-.23Zm-1.75-.71.5.19.1-.25-.51-.2Zm-1.8-.58.52.15.08-.26-.52-.15Zm-1.83-.45.53.11.06-.26-.53-.12Zm-1.85-.32.53.08,0-.27-.54-.08Zm-1.88-.19.54,0,0-.27-.54,0Zm-1.89-.05h.54v-.27h-.55Zm-1.88.08.54,0,0-.27-.54,0Zm-1.87.21.53-.08,0-.26-.54.07Zm-1.86.34.53-.11-.05-.27-.54.12Zm-1.82.48.51-.15-.07-.26a5.08,5.08,0,0,0-.52.15Zm-1.79.6.51-.19-.09-.25-.51.19Zm-1.74.73.49-.22-.11-.25-.49.22Zm-1.68.85.47-.25-.12-.24-.48.25Zm-1.62,1,.46-.29-.14-.23-.46.29Zm-1.54,1.08.43-.32-.16-.22-.43.33Zm-1.47,1.19.41-.35-.17-.21-.41.36Zm-1.37,1.29.38-.38-.19-.19-.38.38Zm-1.28,1.39c.11-.14.23-.28.35-.41l-.2-.18-.36.41ZM479.05,484c.1-.15.21-.29.32-.43l-.21-.17-.33.43ZM478,485.55q.15-.24.3-.45l-.23-.16-.3.46Zm-1,1.62c.09-.16.17-.32.26-.47l-.23-.14-.27.48Zm-.84,1.69c.07-.17.15-.33.23-.49l-.25-.12c-.08.16-.15.33-.23.49Zm-.72,1.74c.06-.17.12-.34.19-.51l-.25-.1-.2.51Zm-.6,1.79c0-.18.11-.35.16-.52l-.26-.08-.16.52Zm-.46,1.82.12-.52-.26-.06c0,.17-.09.35-.13.53Zm-.33,1.86c0-.18.05-.35.08-.53l-.27-.05c0,.18-.06.36-.08.54Zm-.2,1.88c0-.18,0-.36,0-.54l-.27,0c0,.18,0,.37,0,.55Zm-.07,1.88c0-.18,0-.36,0-.54h-.27c0,.18,0,.36,0,.54Zm.07,1.89,0-.54h-.27c0,.18,0,.36,0,.54Zm.19,1.87c0-.18,0-.36-.07-.53l-.26,0c0,.18,0,.36.07.54Zm.34,1.86c0-.18-.08-.35-.11-.53L474,505c0,.18.07.36.11.53Zm.46,1.82-.15-.51-.26.07.15.52Zm.59,1.8-.18-.51-.26.09c.06.17.12.34.19.51Zm.72,1.74c-.07-.17-.15-.33-.22-.5l-.25.11c.08.17.15.33.22.5Zm.84,1.69-.25-.48-.24.12.25.48Zm1,1.62-.28-.46-.23.14c.09.16.19.31.28.46Zm1.08,1.55c-.11-.14-.22-.29-.32-.44l-.22.16c.1.15.21.29.32.44Zm1.18,1.47c-.12-.14-.24-.27-.35-.41l-.21.17.35.42Zm1.28,1.38-.38-.38-.2.18.38.39Zm1.37,1.29-.4-.35-.18.19.4.37Zm1.46,1.19-.42-.33-.17.22.43.33Zm1.55,1.09-.45-.3-.15.22.45.3Zm1.62,1-.47-.27-.14.24.47.26Zm1.68.85-.49-.23-.12.24.49.24Zm1.74.73-.51-.19-.1.25.51.2Zm1.78.61-.51-.16-.09.25.52.17Zm1.83.47-.53-.12-.06.26.53.13Zm1.85.35-.53-.09-.05.27.54.08Zm1.87.21-.53,0,0,.27.54,0Zm1.89.08h-.54v.27h.54Zm.73,0h-.54v.27h.54Z" transform="translate(-464.26 -465.85)"/><path class="cls-2" d="M508.73,495.17l2.73,7.16-5.49,0Zm-4.18-6.28,6.58.09,8.38,21.82-4.82,0-1.61-4.19h-8.77l-1.64,4.19-4.8,0,7.66-19.34Z" transform="translate(-464.26 -465.85)"/><polygon class="cls-2" points="19.2 23 32.15 23 32.15 27.08 24 26.99 24 31.97 31.43 31.97 30.32 35.96 24 35.96 24 40.78 32.15 40.78 32.15 44.99 19.2 44.99 19.2 23"/><polygon class="cls-3" points="37.16 48.61 31.86 51.11 32.68 54.89 33.76 54.89 33.58 52.19 33.74 52.14 34.39 54.89 35.52 54.89 35.48 51.6 35.64 51.55 36.21 54.89 37.4 54.89 37.68 50.92 37.85 50.86 38.14 54.89 39.71 54.89 40.27 49.36 37.16 48.61"/></svg>