<?xml version="1.0" encoding="utf-8"?>
<!-- Generator: Adobe Illustrator 24.0.1, SVG Export Plug-In . SVG Version: 6.00 Build 0)  -->
<svg version="1.1" id="Capa_1" xmlns="http://www.w3.org/2000/svg" xmlns:xlink="http://www.w3.org/1999/xlink" x="0px" y="0px"
	 viewBox="0 0 72.2 68" style="enable-background:new 0 0 72.2 68;" xml:space="preserve">
<style type="text/css">
	.st0{fill:#C37E09;}
	.st1{fill:#E2DFCE;}
	.st2{fill-rule:evenodd;clip-rule:evenodd;fill:#44465B;}
	.st3{fill:#44465B;}
</style>
<title>asdf</title>
<path class="st0" d="M3.9,34l-1.8,1.8L0,33.6l2.1-2.1l2.1,2.1L3.9,34z M2.1,34.5L3,33.6l-0.8-0.8l-0.8,0.8L2.1,34.5z"/>
<path class="st0" d="M71.9,34L70,35.8l-2.1-2.1l2.1-2.1l2.1,2.1L71.9,34z M70,34.5l0.8-0.8L70,32.8l-0.8,0.8L70,34.5z"/>
<path class="st1" d="M14.7,59.2c-5.9-5-9.9-12-11.2-19.6L6,37.2c1.7,16.7,16.7,28.7,33.3,27c14.2-1.5,25.5-12.8,27-27l2.4,2.4
	c-3.1,18-20.1,30.1-38.1,27.1C24.7,65.6,19.2,63.1,14.7,59.2L14.7,59.2z"/>
<path class="st1" d="M15.5,11.7c-5.4,5-8.8,11.8-9.6,19.1l-2.4-2.4c3.1-18,20.1-30.1,38.1-27c13.8,2.4,24.7,13.2,27,27l-2.4,2.4
	c-1.7-16.7-16.6-28.8-33.3-27C26.4,4.5,20.3,7.2,15.5,11.7L15.5,11.7z"/>
<path class="st1" d="M56.3,12.1c5.4,5,8.8,11.8,9.5,19.2L63.1,34l2.7,2.7c-1.5,16.4-16.1,28.5-32.5,27C19,62.3,7.7,51,6.3,36.7
	L9.1,34l-2.8-2.8c1.5-16.4,16.1-28.5,32.5-27C45.4,4.8,51.5,7.6,56.3,12.1L56.3,12.1z"/>
<path class="st0" d="M2.5,28.5C5.8,10,23.4-2.4,41.9,0.8C56,3.2,67.1,14.3,69.5,28.5v0.2L64.3,34l5.3,5.3v0.2
	c-3.2,18.5-20.8,30.9-39.3,27.7C16.1,64.7,5,53.6,2.5,39.4v-0.2l5.3-5.3l-5.3-5.3V28.5z M6.3,31.2L9.1,34l-2.8,2.8
	c1.5,16.4,16.1,28.5,32.5,27c14.3-1.3,25.6-12.7,27-27L63.1,34l2.7-2.7c-1.5-16.4-16.1-28.5-32.5-27C19,5.7,7.7,17,6.3,31.2
	L6.3,31.2z M3.5,39.6c3.1,18,20.1,30.1,38.1,27c13.8-2.4,24.7-13.2,27-27l-2.4-2.4c-1.7,16.7-16.7,28.7-33.3,27
	c-14.2-1.5-25.5-12.8-27-27L3.5,39.6z M36.1,0.9C20,0.9,6.2,12.5,3.5,28.4l2.4,2.4c1.7-16.7,16.7-28.7,33.3-27
	c14.2,1.5,25.5,12.8,27,27l2.4-2.4C65.9,12.5,52.2,0.9,36.1,0.9L36.1,0.9z"/>
<path class="st0" d="M62.9,33.6c0,0.2,0,0.4,0,0.5h-0.3c0-0.2,0-0.4,0-0.5H62.9z"/>
<path class="st0" d="M62.8,35.5v0.5h-0.3v-0.5L62.8,35.5z"/>
<path class="st0" d="M62.7,31.7c0,0.2,0,0.4,0,0.5h-0.3c0-0.2,0-0.4,0-0.5H62.7z"/>
<path class="st0" d="M62.7,37.4c0,0.2,0,0.4-0.1,0.5h-0.3c0-0.2,0.1-0.4,0.1-0.5H62.7z"/>
<path class="st0" d="M62.6,29.8c0,0.2,0,0.4,0.1,0.5h-0.3c0-0.2,0-0.4-0.1-0.5H62.6z"/>
<path class="st1" d="M62.6,33.6c0,0.2,0,0.4,0,0.5v1.4v0.5l-0.1,1.3c0,0.2,0,0.4-0.1,0.5l-0.2,1.3c0,0.2-0.1,0.4-0.1,0.5l-0.3,1.3
	c0,0.2-0.1,0.3-0.2,0.5l-0.4,1.3L61,43.4l-0.5,1.3l-0.2,0.5l-0.6,1.2c-0.1,0.2-0.2,0.3-0.3,0.5L58.7,48c-0.1,0.2-0.2,0.3-0.3,0.5
	l-0.8,1.1L57.3,50l-0.8,1l-0.3,0.4l-0.9,1l-0.4,0.4l-1,0.9L53.4,54l-1,0.8L52,55.2L50.9,56l-0.5,0.3L49.3,57l-0.5,0.3l-1.2,0.6
	l-0.5,0.2l-1.2,0.5l-0.5,0.2l-1.3,0.4l-0.5,0.2l-1.3,0.3c-0.2,0-0.3,0.1-0.5,0.1l-1.3,0.3l-0.5,0.1l-1.3,0.2H38v0.3h-1.4v-0.2h-1.3
	L34,60.3h-0.5l-1.3-0.2l-0.5-0.1l0,0.3l-1.3-0.3l0.1-0.3l-0.5-0.1L29.7,60l-1.3-0.3l0.1-0.3l-0.5-0.2l-0.1,0.3L26.6,59l0.1-0.3
	l-0.5-0.2L26,58.8l-1.3-0.5l0.1-0.3l-0.5-0.2L24.3,58l-1.2-0.6l0.1-0.2l-0.5-0.3l-0.1,0.2l-1.2-0.7l0.1-0.2l-0.5-0.3L21,56.1
	l-1.1-0.8l0.2-0.2l-0.4-0.3L19.5,55l-1-0.9l0.2-0.2l-0.4-0.3L18,53.8l-1-0.9l0.2-0.2l-0.4-0.4l-0.2,0.2l-0.9-1l0.2-0.2
	c-0.1-0.1-0.2-0.3-0.4-0.4L15.4,51l-0.8-1.1l0.2-0.2c-0.1-0.1-0.2-0.3-0.3-0.4l-0.2,0.2l-0.8-1.1l0.2-0.1l-0.3-0.5l-0.2,0.1
	l-0.7-1.2l0.2-0.1l-0.3-0.5l-0.2,0.1L11.6,45l0.3-0.1c-0.1-0.2-0.1-0.3-0.2-0.5l-0.3,0.1l-0.5-1.3l0.3-0.1L11,42.7l-0.3,0.1
	l-0.4-1.3l0.3-0.1l-0.1-0.5l-0.3,0.1l-0.3-1.3l0.3,0c0-0.2-0.1-0.4-0.1-0.5l-0.3,0.1l-0.2-1.3h0.3c0-0.2,0-0.4-0.1-0.5H9.4l0-1.4
	h0.2v-0.5V34c0-0.2,0-0.4,0-0.5H9.4v-1.4h0.3c0-0.2,0-0.4,0-0.5H9.4l0.1-1.4h0.3c0-0.2,0-0.4,0.1-0.5l-0.3,0l0.3-1.3h0.3l0.1-0.5
	L10,27.8l0.3-1.3l0.3,0.1c0-0.2,0.1-0.4,0.2-0.5l-0.3-0.1l0.4-1.3l0.3,0.1c0.1-0.2,0.1-0.3,0.2-0.5l-0.3-0.1l0.5-1.3l0.3,0.1
	c0.1-0.2,0.1-0.3,0.2-0.5l-0.3-0.1l0.6-1.2l0.2,0.1c0.1-0.2,0.2-0.3,0.3-0.5l-0.2-0.1l0.7-1.2l0.2,0.1c0.1-0.2,0.2-0.3,0.3-0.5
	l-0.2-0.2l0.8-1.1l0.2,0.2c0.1-0.1,0.2-0.3,0.3-0.4l-0.2-0.2l0.9-1l0.2,0.2c0.1-0.1,0.2-0.3,0.4-0.4l-0.2-0.2l0.9-1l0.2,0.2l0.4-0.4
	l-0.2-0.2l1-0.9l0.2,0.2l0.4-0.4l-0.2-0.2l1.1-0.8l0.2,0.2l0.4-0.3l-0.2-0.2l1.1-0.8l0.1,0.2l0.5-0.3l-0.1-0.2l1.2-0.7l0.1,0.2
	l0.5-0.3l-0.1-0.2l1.2-0.6l0.1,0.3l0.5-0.2l-0.1-0.3l1.3-0.5l0.1,0.3L27.2,9l-0.1-0.3l1.3-0.4l0.1,0.3L29,8.4l-0.1-0.3l1.3-0.3
	l0.1,0.3L30.8,8l0-0.3l1.3-0.2v0.2l0.5-0.1L34,7.6h0.5h1.3h0.5l1.4,0h0.5l1.3,0.1l0.5,0.1l1.3,0.2L42,8.2l1.3,0.3l0.5,0.1l1.3,0.4
	l0.5,0.2l1.3,0.5l0.5,0.2l1.2,0.6l0.5,0.3l1.2,0.7l0.5,0.3l1.1,0.8l0.4,0.3l1,0.9l0.4,0.4l1,0.9l0.4,0.4l0.9,1
	c0.1,0.1,0.2,0.3,0.3,0.4l0.8,1c0.1,0.1,0.2,0.3,0.3,0.4l0.8,1.1l0.3,0.5l0.7,1.1l0.3,0.5l0.6,1.2c0.1,0.2,0.2,0.3,0.2,0.5l0.5,1.2
	c0.1,0.2,0.1,0.3,0.2,0.5l0.4,1.3c0.1,0.2,0.1,0.4,0.2,0.5l0.3,1.3l0.1,0.5l0.2,1.3c0,0.2,0,0.4,0.1,0.5l0.1,1.3c0,0.2,0,0.4,0,0.5
	L62.6,33.6z"/>
<path class="st0" d="M62.3,39.3l-0.1,0.5L62,39.8c0-0.2,0.1-0.4,0.1-0.5L62.3,39.3z"/>
<path class="st0" d="M62.2,28c0,0.2,0.1,0.4,0.1,0.5H62L61.9,28L62.2,28z"/>
<path class="st0" d="M61.9,41.1c0,0.2-0.1,0.4-0.2,0.5l-0.3-0.1c0.1-0.2,0.1-0.3,0.2-0.5L61.9,41.1z"/>
<path class="st0" d="M61.7,26.1c0.1,0.2,0.1,0.4,0.2,0.5l-0.3,0.1c0-0.2-0.1-0.4-0.2-0.5L61.7,26.1z"/>
<path class="st0" d="M61.3,43c-0.1,0.2-0.1,0.3-0.2,0.5l-0.3-0.1l0.2-0.5L61.3,43z"/>
<path class="st0" d="M61.1,24.3l0.2,0.5L61,24.9c-0.1-0.2-0.1-0.3-0.2-0.5L61.1,24.3z"/>
<path class="st0" d="M60.6,44.8l-0.2,0.5l-0.2-0.1l0.2-0.5L60.6,44.8z"/>
<path class="st0" d="M60.3,22.6l0.2,0.5l-0.3,0.1c-0.1-0.2-0.2-0.3-0.2-0.5L60.3,22.6z"/>
<path class="st0" d="M59.6,46.3l0.2,0.1c-0.1,0.2-0.2,0.3-0.3,0.5l-0.2-0.1C59.4,46.7,59.5,46.5,59.6,46.3z"/>
<path class="st0" d="M59.5,20.9l0.3,0.5l-0.2,0.1L59.2,21L59.5,20.9z"/>
<path class="st0" d="M58.8,48.1l-0.3,0.5l-0.2-0.2c0.1-0.2,0.2-0.3,0.3-0.5L58.8,48.1z"/>
<path class="st0" d="M58.5,19.3l0.3,0.5l-0.2,0.1l-0.3-0.5L58.5,19.3z"/>
<path class="st0" d="M57.8,49.7l-0.3,0.4L57.2,50l0.3-0.4L57.8,49.7z"/>
<path class="st0" d="M57.4,17.7c0.1,0.1,0.2,0.3,0.3,0.4l-0.2,0.2c-0.1-0.1-0.2-0.3-0.3-0.4L57.4,17.7z"/>
<path class="st0" d="M56.6,51.2c-0.1,0.1-0.2,0.3-0.3,0.4l-0.2-0.2l0.3-0.4L56.6,51.2z"/>
<path class="st0" d="M56.1,16.2l0.4,0.4l-0.2,0.2c-0.1-0.1-0.2-0.3-0.3-0.4L56.1,16.2z"/>
<path class="st0" d="M55.3,52.6L55,53l-0.2-0.2l0.4-0.4L55.3,52.6z"/>
<path class="st0" d="M55.2,15.2L55,15.4L54.6,15l0.2-0.2L55.2,15.2z"/>
<path class="st0" d="M53.8,53.7l0.2,0.2l-0.4,0.3l-0.2-0.2L53.8,53.7z"/>
<path class="st0" d="M53.8,13.9l-0.2,0.2l-0.4-0.4l0.2-0.2L53.8,13.9z"/>
<path class="st0" d="M52.3,54.9l0.2,0.2l-0.4,0.3l-0.2-0.2L52.3,54.9z"/>
<path class="st0" d="M52.4,12.7l-0.2,0.2l-0.4-0.3l0.2-0.2L52.4,12.7z"/>
<path class="st0" d="M50.8,56l0.2,0.2l-0.5,0.3l-0.1-0.2L50.8,56z"/>
<path class="st0" d="M50.8,11.6l-0.2,0.2l-0.5-0.3l0.2-0.2L50.8,11.6z"/>
<path class="st0" d="M49.2,57l0.1,0.2l-0.5,0.3l-0.1-0.2L49.2,57z"/>
<path class="st0" d="M49.2,10.6L49,10.9l-0.5-0.3l0.1-0.2L49.2,10.6z"/>
<path class="st0" d="M47.5,57.9l0.1,0.3l-0.5,0.2L47,58.1L47.5,57.9z"/>
<path class="st0" d="M47.5,9.8L47.4,10l-0.5-0.2L47,9.5L47.5,9.8z"/>
<path class="st0" d="M45.8,58.7l0.1,0.3l-0.5,0.2l-0.1-0.3L45.8,58.7z"/>
<path class="st0" d="M45.7,9l-0.1,0.3l-0.5-0.2l0.1-0.3L45.7,9z"/>
<path class="st0" d="M44,59.3l0.1,0.3l-0.5,0.2l-0.1-0.3L44,59.3z"/>
<path class="st0" d="M43.9,8.4l-0.1,0.3l-0.5-0.1l0.1-0.3L43.9,8.4z"/>
<path class="st0" d="M42.2,59.8l0.1,0.3l-0.5,0.1l0-0.3C41.9,59.9,42,59.8,42.2,59.8z"/>
<path class="st0" d="M42.1,7.9L42,8.1L41.5,8l0.1-0.3L42.1,7.9z"/>
<path class="st0" d="M40.4,60.1v0.3l-0.5,0.1v-0.3L40.4,60.1z"/>
<path class="st0" d="M40.2,7.5v0.3l-0.5-0.1V7.4L40.2,7.5z"/>
<path class="st0" d="M38.5,60.4v0.3h-0.5v-0.3H38.5z"/>
<path class="st0" d="M38.3,7.3v0.3h-0.5V7.3H38.3z"/>
<path class="st0" d="M36.6,60.7L36.6,60.7l-0.5,0.1v-0.3h0.5V60.7z"/>
<path class="st0" d="M36.4,7.2v0.3h-0.5V7.2H36.4z"/>
<path class="st0" d="M35.9,60.5v0.3h-0.5v-0.3H35.9z"/>
<path class="st0" d="M34.5,7.2v0.3H34V7.2H34.5z"/>
<path class="st0" d="M34,60.4v0.3h-0.5v-0.3H34z"/>
<path class="st0" d="M32.6,7.4v0.3l-0.5,0.1V7.5l0,0L32.6,7.4z"/>
<path class="st0" d="M32.1,60.2v0.3l-0.5-0.1l0,0l0-0.3L32.1,60.2z"/>
<path class="st0" d="M30.7,7.7l0,0.3l-0.5,0.1l-0.1-0.3L30.7,7.7z"/>
<path class="st0" d="M30.3,59.9l-0.1,0.3L29.7,60l0.1-0.3L30.3,59.9z"/>
<path class="st0" d="M28.9,8.1L29,8.4l-0.5,0.1l-0.1-0.3C28.6,8.2,28.7,8.2,28.9,8.1z"/>
<path class="st0" d="M28.4,59.4l-0.1,0.3l-0.5-0.2l0.1-0.3L28.4,59.4z"/>
<path class="st0" d="M27.1,8.7L27.2,9l-0.5,0.2l-0.1-0.3L27.1,8.7z"/>
<path class="st0" d="M26.7,58.8l-0.1,0.3L26,58.9l0.1-0.3L26.7,58.8z"/>
<path class="st0" d="M25.3,9.4l0.1,0.3l-0.5,0.2l-0.1-0.3L25.3,9.4z"/>
<path class="st0" d="M24.9,58.1l-0.1,0.3l-0.5-0.2l0.1-0.2L24.9,58.1z"/>
<path class="st0" d="M23.6,10.3l0.1,0.2l-0.5,0.3l-0.1-0.2L23.6,10.3z"/>
<path class="st0" d="M23.2,57.2l-0.1,0.2l-0.5-0.3l0.1-0.2L23.2,57.2z"/>
<path class="st0" d="M21.9,11.2l0.1,0.2l-0.5,0.3l-0.1-0.2L21.9,11.2z"/>
<path class="st0" d="M21.6,56.2l-0.1,0.2L21,56.2l0.1-0.2L21.6,56.2z"/>
<path class="st0" d="M20.4,12.3l0.2,0.2l-0.4,0.3l-0.2-0.2L20.4,12.3z"/>
<path class="st0" d="M20.1,55.1l-0.2,0.2L19.5,55l0.2-0.2L20.1,55.1z"/>
<path class="st0" d="M18.9,13.4l0.2,0.2L18.6,14l-0.2-0.2L18.9,13.4z"/>
<path class="st0" d="M18.6,54l-0.2,0.2L18,53.8l0.2-0.2L18.6,54z"/>
<path class="st0" d="M17.6,14.9l-0.4,0.4l-0.2-0.2l0.4-0.4L17.6,14.9z"/>
<path class="st0" d="M17.2,52.7L17,52.9l-0.4-0.4l0.2-0.2L17.2,52.7z"/>
<path class="st0" d="M16.3,16.3c-0.1,0.1-0.2,0.3-0.4,0.4l-0.2-0.2l0.4-0.4L16.3,16.3z"/>
<path class="st0" d="M15.6,50.9c0.1,0.1,0.2,0.3,0.4,0.4l-0.2,0.2L15.4,51L15.6,50.9z"/>
<path class="st0" d="M15.1,17.7c-0.1,0.1-0.2,0.3-0.3,0.4L14.6,18l0.3-0.4L15.1,17.7z"/>
<path class="st0" d="M14.5,49.4c0.1,0.2,0.2,0.3,0.3,0.4L14.6,50c-0.1-0.2-0.2-0.3-0.3-0.4L14.5,49.4z"/>
<path class="st0" d="M14,19.3c-0.1,0.1-0.2,0.3-0.3,0.5l-0.2-0.1l0.3-0.5L14,19.3z"/>
<path class="st0" d="M13.4,47.8l0.3,0.5l-0.2,0.1c-0.1-0.2-0.2-0.3-0.3-0.5L13.4,47.8z"/>
<path class="st0" d="M13,20.9c-0.1,0.1-0.2,0.3-0.3,0.5l-0.2-0.1l0.3-0.5L13,20.9z"/>
<path class="st0" d="M12.5,46.1l0.3,0.5l-0.2,0.1l-0.3-0.5L12.5,46.1z"/>
<path class="st0" d="M12.1,22.5c-0.1,0.2-0.2,0.3-0.2,0.5l-0.3-0.1c0.1-0.2,0.1-0.3,0.2-0.5L12.1,22.5z"/>
<path class="st0" d="M11.7,44.5c0.1,0.2,0.1,0.3,0.2,0.5l-0.3,0.1c-0.1-0.2-0.1-0.3-0.2-0.5L11.7,44.5z"/>
<path class="st0" d="M11.4,24.2c-0.1,0.2-0.1,0.3-0.2,0.5l-0.3-0.1l0.2-0.5L11.4,24.2z"/>
<path class="st0" d="M11,42.7l0.2,0.5l-0.3,0.1c-0.1-0.2-0.1-0.3-0.2-0.5L11,42.7z"/>
<path class="st0" d="M10.7,26c0,0.2-0.1,0.3-0.2,0.5l-0.3-0.1l0.2-0.5L10.7,26z"/>
<path class="st0" d="M10.4,40.9l0.1,0.5l-0.3,0.1L10.2,41L10.4,40.9z"/>
<path class="st0" d="M10.3,27.8l-0.1,0.5H9.9c0-0.2,0.1-0.4,0.1-0.5L10.3,27.8z"/>
<path class="st0" d="M10,39.1c0,0.2,0.1,0.4,0.1,0.5l-0.3,0c0-0.2-0.1-0.4-0.1-0.5L10,39.1z"/>
<path class="st0" d="M9.9,29.7c0,0.2-0.1,0.4-0.1,0.5H9.5c0-0.2,0-0.4,0.1-0.5L9.9,29.7z"/>
<path class="st0" d="M9.7,37.2c0,0.2,0,0.4,0.1,0.5H9.6l0,0c0-0.2,0-0.4-0.1-0.5L9.7,37.2z"/>
<path class="st0" d="M9.6,31.6c0,0.2,0,0.4,0,0.5H9.4c0-0.2,0-0.4,0-0.5l0,0L9.6,31.6z"/>
<path class="st0" d="M9.6,35.3v0.5H9.3c0-0.2,0-0.4,0-0.5H9.6z"/>
<path class="st0" d="M9.5,33.4c0,0.2,0,0.4,0,0.5H9.3c0-0.2,0-0.4,0-0.5H9.5z"/>
<path class="st2" d="M44.5,29.3l2.7,7.2h-5.5L44.5,29.3z M40.3,23l6.6,0.1L55.3,45h-4.8l-1.6-4.2h-8.8L38.4,45h-4.8l7.7-19.3
	L40.3,23z"/>
<polygon class="st2" points="19.2,23 32.2,23 32.2,27.1 24,27 24,32 31.4,32 30.3,36 24,36 24,40.8 32.2,40.8 32.2,45 19.2,45 "/>
<polygon class="st3" points="37.2,48.6 31.9,51.1 32.7,54.9 33.8,54.9 33.6,52.2 33.7,52.1 34.4,54.9 35.5,54.9 35.5,51.6 
	35.6,51.5 36.2,54.9 37.4,54.9 37.7,50.9 37.8,50.9 38.1,54.9 39.7,54.9 40.3,49.4 "/>
</svg>
