<svg id="Capa_1" data-name="Capa 1" xmlns="http://www.w3.org/2000/svg" viewBox="0 0 78.98 8.24"><defs><style>.cls-1{fill:#44465b;}</style></defs><title>text</title><path class="cls-1" d="M110.42,400.12V402h-6v-8h6v1.85h-3.61V397h2.92v1.78h-2.92v1.3Z" transform="translate(-104.41 -393.91)"/><path class="cls-1" d="M117,400.07v2h-5.6v-8h2.45v6Z" transform="translate(-104.41 -393.91)"/><path class="cls-1" d="M121.21,402.16a3.65,3.65,0,0,1-2.75-1.12,4.18,4.18,0,0,1-1.06-3,4.39,4.39,0,0,1,1-3,3.54,3.54,0,0,1,2.82-1.17A3.62,3.62,0,0,1,124,395,4.1,4.1,0,0,1,125,398,4.38,4.38,0,0,1,124,401,3.58,3.58,0,0,1,121.21,402.16Zm0-1.82a.93.93,0,0,0,.89-.54,5,5,0,0,0,.28-2c0-1.39-.38-2.08-1.12-2.08s-1.21.79-1.21,2.38S120.43,400.34,121.2,400.34Z" transform="translate(-104.41 -393.91)"/><path class="cls-1" d="M133.46,402l-.46-1.57h-2.14l-.48,1.57h-2l2.47-8h2.59l2.51,8Zm-2.18-3.32h1.29l-.64-2.32Z" transform="translate(-104.41 -393.91)"/><path class="cls-1" d="M140.86,399l2.24.13a3.29,3.29,0,0,1-1.08,2.26,3.73,3.73,0,0,1-4.92-.29,4.2,4.2,0,0,1-1-3,4.62,4.62,0,0,1,1-3,3.7,3.7,0,0,1,5.09-.28,3.59,3.59,0,0,1,1,2.33l-2.29.13a1.76,1.76,0,0,0-.31-1.17.93.93,0,0,0-.72-.35c-.77,0-1.16.77-1.16,2.33a3.58,3.58,0,0,0,.3,1.77.94.94,0,0,0,.85.47C140.42,400.3,140.78,399.86,140.86,399Z" transform="translate(-104.41 -393.91)"/><path class="cls-1" d="M148.27,402l-.45-1.57h-2.14L145.2,402h-2l2.47-8h2.59l2.51,8Zm-2.17-3.32h1.29l-.65-2.32Z" transform="translate(-104.41 -393.91)"/><path class="cls-1" d="M151.52,402v-8h3.09a3.72,3.72,0,0,1,3,1.2,4.18,4.18,0,0,1,1,2.77,4,4,0,0,1-1.08,2.91,3.66,3.66,0,0,1-2.79,1.12Zm2.45-1.84h.64a1.22,1.22,0,0,0,1-.59,2.72,2.72,0,0,0,.42-1.61,3,3,0,0,0-.37-1.51,1.19,1.19,0,0,0-1.08-.63H154Z" transform="translate(-104.41 -393.91)"/><path class="cls-1" d="M165.68,400.12V402h-6v-8h6v1.85h-3.61V397H165v1.78h-2.92v1.3Z" transform="translate(-104.41 -393.91)"/><path class="cls-1" d="M175.35,394v8h-2.28v-5.72L171.59,402H170l-1.53-5.72V402h-1.84v-8h3.2l1.16,4.25,1.11-4.25Z" transform="translate(-104.41 -393.91)"/><path class="cls-1" d="M183.39,394l-2.51,4.62V402H178.5v-3.38L175.81,394h2.68l1.41,2.64,1.34-2.64Z" transform="translate(-104.41 -393.91)"/></svg>