<svg id="Capa_1" data-name="Capa 1" xmlns="http://www.w3.org/2000/svg" viewBox="0 0 116.3 8.24"><defs><style>.cls-1{fill:#e2dfce;}</style></defs><title>text</title><path class="cls-1" d="M110.42,400.12V402h-6v-8h6v1.85h-3.61V397h2.92v1.78h-2.92v1.3Z" transform="translate(-104.41 -393.91)"/><path class="cls-1" d="M117,400.07v2h-5.6v-8h2.45v6Z" transform="translate(-104.41 -393.91)"/><path class="cls-1" d="M121.21,402.16a3.65,3.65,0,0,1-2.75-1.12,4.18,4.18,0,0,1-1.06-3,4.39,4.39,0,0,1,1-3,3.54,3.54,0,0,1,2.82-1.17A3.62,3.62,0,0,1,124,395,4.1,4.1,0,0,1,125,398,4.38,4.38,0,0,1,124,401,3.58,3.58,0,0,1,121.21,402.16Zm0-1.82a.93.93,0,0,0,.89-.54,5,5,0,0,0,.28-2c0-1.39-.38-2.08-1.12-2.08s-1.21.79-1.21,2.38S120.43,400.34,121.2,400.34Z" transform="translate(-104.41 -393.91)"/><path class="cls-1" d="M126.05,402v-8h4.06a2.4,2.4,0,0,1,1.84.64,2.1,2.1,0,0,1,.58,1.46,1.8,1.8,0,0,1-.34,1.08,1.65,1.65,0,0,1-1,.67,1.77,1.77,0,0,1,1.55,1.86,2.48,2.48,0,0,1-.55,1.59,2.9,2.9,0,0,1-2.34.7Zm2.26-4.93h1.13a.73.73,0,0,0,.61-.22.75.75,0,0,0,.17-.46c0-.45-.27-.67-.82-.67h-1.09Zm0,3.15h1.19a.86.86,0,0,0,.66-.22.73.73,0,0,0,.2-.49.72.72,0,0,0-.2-.51,1,1,0,0,0-.74-.23h-1.11Z" transform="translate(-104.41 -393.91)"/><path class="cls-1" d="M137.21,402.16a3.65,3.65,0,0,1-2.75-1.12,4.18,4.18,0,0,1-1.06-3,4.35,4.35,0,0,1,1-3,3.52,3.52,0,0,1,2.82-1.17A3.61,3.61,0,0,1,140,395a4.1,4.1,0,0,1,1,2.94A4.33,4.33,0,0,1,140,401,3.58,3.58,0,0,1,137.21,402.16Zm0-1.82a.94.94,0,0,0,.9-.54,5,5,0,0,0,.27-2c0-1.39-.38-2.08-1.12-2.08s-1.21.79-1.21,2.38S136.43,400.34,137.2,400.34Z" transform="translate(-104.41 -393.91)"/><path class="cls-1" d="M145.5,402.16a3.65,3.65,0,0,1-2.75-1.12,4.18,4.18,0,0,1-1.06-3,4.35,4.35,0,0,1,1-3,3.52,3.52,0,0,1,2.82-1.17,3.61,3.61,0,0,1,2.72,1.1A4.1,4.1,0,0,1,149.3,398a4.33,4.33,0,0,1-1.06,3.06A3.58,3.58,0,0,1,145.5,402.16Zm0-1.82a.94.94,0,0,0,.9-.54,5,5,0,0,0,.27-2c0-1.39-.37-2.08-1.12-2.08s-1.21.79-1.21,2.38S144.72,400.34,145.49,400.34Z" transform="translate(-104.41 -393.91)"/><path class="cls-1" d="M149.51,399.72l2.28-.41a1.36,1.36,0,0,0,1.48,1c.62,0,.92-.16.92-.49a.46.46,0,0,0-.21-.4,2.36,2.36,0,0,0-.76-.25,5.2,5.2,0,0,1-2.71-1.06,2.21,2.21,0,0,1-.59-1.53,2.4,2.4,0,0,1,.85-1.88,3.66,3.66,0,0,1,2.47-.75,3.13,3.13,0,0,1,3.23,2l-2,.62a1.23,1.23,0,0,0-1.28-.8c-.54,0-.81.16-.81.49a.39.39,0,0,0,.19.35,2.14,2.14,0,0,0,.7.23,16.74,16.74,0,0,1,2,.54,2.23,2.23,0,0,1,1.41,2.13,2.38,2.38,0,0,1-1,2,4.17,4.17,0,0,1-2.59.76C151.17,402.16,150,401.34,149.51,399.72Z" transform="translate(-104.41 -393.91)"/><path class="cls-1" d="M161,396V402h-2.33V396H157V394h5.65V396Z" transform="translate(-104.41 -393.91)"/><path class="cls-1" d="M170.77,402l-.45-1.57h-2.14L167.7,402h-2l2.47-8h2.59l2.51,8Zm-2.17-3.32h1.29l-.65-2.32Z" transform="translate(-104.41 -393.91)"/><path class="cls-1" d="M178.18,399l2.24.13a3.3,3.3,0,0,1-1.09,2.26,3.72,3.72,0,0,1-4.91-.29,4.2,4.2,0,0,1-1-3,4.56,4.56,0,0,1,1-3,3.7,3.7,0,0,1,5.09-.28,3.65,3.65,0,0,1,1,2.33l-2.29.13a1.76,1.76,0,0,0-.31-1.17.93.93,0,0,0-.72-.35c-.78,0-1.16.77-1.16,2.33a3.58,3.58,0,0,0,.3,1.77.94.94,0,0,0,.85.47C177.73,400.3,178.1,399.86,178.18,399Z" transform="translate(-104.41 -393.91)"/><path class="cls-1" d="M185.59,402l-.45-1.57H183l-.48,1.57h-2l2.47-8h2.6l2.51,8Zm-2.17-3.32h1.29l-.65-2.32Z" transform="translate(-104.41 -393.91)"/><path class="cls-1" d="M188.83,402v-8h3.1a3.72,3.72,0,0,1,3,1.2,4.23,4.23,0,0,1,1,2.77,4,4,0,0,1-1.08,2.91,3.66,3.66,0,0,1-2.79,1.12Zm2.46-1.84h.64a1.23,1.23,0,0,0,1-.59,2.72,2.72,0,0,0,.42-1.61,2.94,2.94,0,0,0-.38-1.51,1.16,1.16,0,0,0-1.07-.63h-.64Z" transform="translate(-104.41 -393.91)"/><path class="cls-1" d="M203,400.12V402h-6v-8h6v1.85h-3.61V397h2.92v1.78h-2.92v1.3Z" transform="translate(-104.41 -393.91)"/><path class="cls-1" d="M212.67,394v8h-2.28v-5.72L208.91,402h-1.56l-1.54-5.72V402H204v-8h3.2l1.16,4.25,1.11-4.25Z" transform="translate(-104.41 -393.91)"/><path class="cls-1" d="M220.71,394l-2.51,4.62V402h-2.38v-3.38L213.13,394h2.68l1.4,2.64,1.35-2.64Z" transform="translate(-104.41 -393.91)"/></svg>